<svg style="object-fit:cover" id="my-svg" version="1" baseProfile="full" width="100%" height="100%" viewBox="0 0 1536 746" xmlns="http://www.w3.org/2000/svg"><rect width="1536" height="746" fill="#000000"/><path transform="scale(-1, 1)" d="M 0,746 V 0,522 C 199.5,538.5 399,555 655,555 C 911,555 1223.5,538.5 1536,522 C 1536,522 1536,746 1536,746 Z" stroke="none" stroke-width="0" fill="#ffffff" class="transition-all duration-300 ease-in-out delay-150" style="transform-origin: center center;"/><path transform="scale(-1, 1)" d="M 0,746 V 0,783 C 231.5,777.5 463,772 719,772 C 975,772 1255.5,777.5 1536,783 C 1536,783 1536,746 1536,746 Z" stroke="none" stroke-width="0" fill="#ffffff" class="transition-all duration-300 ease-in-out delay-150" style="transform-origin: center center;"/><path transform="scale(-1, 1)" d="M 0,746 V 0,1174 C 240.5,1183 481,1192 737,1192 C 993,1192 1264.5,1183 1536,1174 C 1536,1174 1536,746 1536,746 Z" stroke="none" stroke-width="0" fill="#ffffff" class="transition-all duration-300 ease-in-out delay-150" style="transform-origin: center center;"/></svg>